%TF.GenerationSoftware,KiCad,Pcbnew,8.0.3*%
%TF.CreationDate,2024-09-05T05:54:07+12:00*%
%TF.ProjectId,test2,74657374-322e-46b6-9963-61645f706362,rev?*%
%TF.SameCoordinates,Original*%
%TF.FileFunction,Soldermask,Top*%
%TF.FilePolarity,Negative*%
%FSLAX46Y46*%
G04 Gerber Fmt 4.6, Leading zero omitted, Abs format (unit mm)*
G04 Created by KiCad (PCBNEW 8.0.3) date 2024-09-05 05:54:07*
%MOMM*%
%LPD*%
G01*
G04 APERTURE LIST*
%ADD10C,3.987800*%
%ADD11C,1.750000*%
%ADD12C,3.300000*%
%ADD13C,0.650000*%
%ADD14O,1.000000X1.600000*%
%ADD15O,1.000000X2.100000*%
%ADD16R,1.700000X1.700000*%
%ADD17O,1.700000X1.700000*%
G04 APERTURE END LIST*
D10*
X319087500Y-77470000D03*
X295275000Y-77470000D03*
X123624134Y-131729112D03*
X223636634Y-131729112D03*
X76200000Y-96520000D03*
X52387500Y-96520000D03*
X314325000Y-96520000D03*
X290512500Y-96520000D03*
D11*
X300355000Y-123825000D03*
D10*
X295275000Y-123825000D03*
D11*
X290195000Y-123825000D03*
D12*
X291465000Y-121285000D03*
X297815000Y-118745000D03*
D11*
X317023750Y-47625000D03*
D10*
X311943750Y-47625000D03*
D11*
X306863750Y-47625000D03*
D12*
X308133750Y-45085000D03*
X314483750Y-42545000D03*
D11*
X178911250Y-123825000D03*
D10*
X173831250Y-123825000D03*
D11*
X168751250Y-123825000D03*
D12*
X170021250Y-121285000D03*
X176371250Y-118745000D03*
D11*
X300355000Y-23812500D03*
D10*
X295275000Y-23812500D03*
D11*
X290195000Y-23812500D03*
D12*
X291465000Y-21272500D03*
X297815000Y-18732500D03*
D11*
X176530000Y-47625000D03*
D10*
X171450000Y-47625000D03*
D11*
X166370000Y-47625000D03*
D12*
X167640000Y-45085000D03*
X173990000Y-42545000D03*
D11*
X143192500Y-66675000D03*
D10*
X138112500Y-66675000D03*
D11*
X133032500Y-66675000D03*
D12*
X134302500Y-64135000D03*
X140652500Y-61595000D03*
D11*
X157480000Y-47625000D03*
D10*
X152400000Y-47625000D03*
D11*
X147320000Y-47625000D03*
D12*
X148590000Y-45085000D03*
X154940000Y-42545000D03*
D11*
X83661250Y-123825000D03*
D10*
X78581250Y-123825000D03*
D11*
X73501250Y-123825000D03*
D12*
X74771250Y-121285000D03*
X81121250Y-118745000D03*
D11*
X274161250Y-123825000D03*
D10*
X269081250Y-123825000D03*
D11*
X264001250Y-123825000D03*
D12*
X265271250Y-121285000D03*
X271621250Y-118745000D03*
D11*
X128905000Y-85725000D03*
D10*
X123825000Y-85725000D03*
D11*
X118745000Y-85725000D03*
D12*
X120015000Y-83185000D03*
X126365000Y-80645000D03*
D11*
X176530000Y-104775000D03*
D10*
X171450000Y-104775000D03*
D11*
X166370000Y-104775000D03*
D12*
X167640000Y-102235000D03*
X173990000Y-99695000D03*
D11*
X281305000Y-23812500D03*
D10*
X276225000Y-23812500D03*
D11*
X271145000Y-23812500D03*
D12*
X272415000Y-21272500D03*
X278765000Y-18732500D03*
D11*
X252730000Y-104775000D03*
D10*
X247650000Y-104775000D03*
D11*
X242570000Y-104775000D03*
D12*
X243840000Y-102235000D03*
X250190000Y-99695000D03*
D11*
X195580000Y-104775000D03*
D10*
X190500000Y-104775000D03*
D11*
X185420000Y-104775000D03*
D12*
X186690000Y-102235000D03*
X193040000Y-99695000D03*
D11*
X276542500Y-66675000D03*
D10*
X271462500Y-66675000D03*
D11*
X266382500Y-66675000D03*
D12*
X267652500Y-64135000D03*
X274002500Y-61595000D03*
D11*
X347980000Y-123825000D03*
D10*
X342900000Y-123825000D03*
D11*
X337820000Y-123825000D03*
D12*
X339090000Y-121285000D03*
X345440000Y-118745000D03*
D11*
X214630000Y-47625000D03*
D10*
X209550000Y-47625000D03*
D11*
X204470000Y-47625000D03*
D12*
X205740000Y-45085000D03*
X212090000Y-42545000D03*
D11*
X109855000Y-23812500D03*
D10*
X104775000Y-23812500D03*
D11*
X99695000Y-23812500D03*
D12*
X100965000Y-21272500D03*
X107315000Y-18732500D03*
D11*
X100330000Y-47625000D03*
D10*
X95250000Y-47625000D03*
D11*
X90170000Y-47625000D03*
D12*
X91440000Y-45085000D03*
X97790000Y-42545000D03*
D11*
X262255000Y-23812500D03*
D10*
X257175000Y-23812500D03*
D11*
X252095000Y-23812500D03*
D12*
X253365000Y-21272500D03*
X259715000Y-18732500D03*
D11*
X195580000Y-23812500D03*
D10*
X190500000Y-23812500D03*
D11*
X185420000Y-23812500D03*
D12*
X186690000Y-21272500D03*
X193040000Y-18732500D03*
D11*
X224155000Y-85725000D03*
D10*
X219075000Y-85725000D03*
D11*
X213995000Y-85725000D03*
D12*
X215265000Y-83185000D03*
X221615000Y-80645000D03*
D11*
X367030000Y-57150000D03*
D10*
X361950000Y-57150000D03*
D11*
X356870000Y-57150000D03*
D12*
X358140000Y-54610000D03*
X364490000Y-52070000D03*
D11*
X319405000Y-66675000D03*
D10*
X314325000Y-66675000D03*
D11*
X309245000Y-66675000D03*
D12*
X310515000Y-64135000D03*
X316865000Y-61595000D03*
D11*
X219392500Y-66675000D03*
D10*
X214312500Y-66675000D03*
D11*
X209232500Y-66675000D03*
D12*
X210502500Y-64135000D03*
X216852500Y-61595000D03*
D11*
X295592500Y-66675000D03*
D10*
X290512500Y-66675000D03*
D11*
X285432500Y-66675000D03*
D12*
X286702500Y-64135000D03*
X293052500Y-61595000D03*
D11*
X59848750Y-123825000D03*
D10*
X54768750Y-123825000D03*
D11*
X49688750Y-123825000D03*
D12*
X50958750Y-121285000D03*
X57308750Y-118745000D03*
D11*
X257492500Y-66675000D03*
D10*
X252412500Y-66675000D03*
D11*
X247332500Y-66675000D03*
D12*
X248602500Y-64135000D03*
X254952500Y-61595000D03*
D11*
X167005000Y-85725000D03*
D10*
X161925000Y-85725000D03*
D11*
X156845000Y-85725000D03*
D12*
X158115000Y-83185000D03*
X164465000Y-80645000D03*
D11*
X214630000Y-104775000D03*
D10*
X209550000Y-104775000D03*
D11*
X204470000Y-104775000D03*
D12*
X205740000Y-102235000D03*
X212090000Y-99695000D03*
D11*
X233680000Y-104775000D03*
D10*
X228600000Y-104775000D03*
D11*
X223520000Y-104775000D03*
D12*
X224790000Y-102235000D03*
X231140000Y-99695000D03*
D11*
X290830000Y-47625000D03*
D10*
X285750000Y-47625000D03*
D11*
X280670000Y-47625000D03*
D12*
X281940000Y-45085000D03*
X288290000Y-42545000D03*
D13*
X66166250Y-19268750D03*
X71946250Y-19268750D03*
D14*
X64736250Y-15618750D03*
D15*
X64736250Y-19798750D03*
D14*
X73376250Y-15618750D03*
D15*
X73376250Y-19798750D03*
D11*
X312261250Y-85725000D03*
D10*
X307181250Y-85725000D03*
D11*
X302101250Y-85725000D03*
D12*
X303371250Y-83185000D03*
X309721250Y-80645000D03*
D11*
X347980000Y-76200000D03*
D10*
X342900000Y-76200000D03*
D11*
X337820000Y-76200000D03*
D12*
X339090000Y-73660000D03*
X345440000Y-71120000D03*
D11*
X205105000Y-85725000D03*
D10*
X200025000Y-85725000D03*
D11*
X194945000Y-85725000D03*
D12*
X196215000Y-83185000D03*
X202565000Y-80645000D03*
D11*
X186055000Y-85725000D03*
D10*
X180975000Y-85725000D03*
D11*
X175895000Y-85725000D03*
D12*
X177165000Y-83185000D03*
X183515000Y-80645000D03*
D11*
X367030000Y-123825000D03*
D10*
X361950000Y-123825000D03*
D11*
X356870000Y-123825000D03*
D12*
X358140000Y-121285000D03*
X364490000Y-118745000D03*
D11*
X214630000Y-23812500D03*
D10*
X209550000Y-23812500D03*
D11*
X204470000Y-23812500D03*
D12*
X205740000Y-21272500D03*
X212090000Y-18732500D03*
D11*
X238442500Y-66675000D03*
D10*
X233362500Y-66675000D03*
D11*
X228282500Y-66675000D03*
D12*
X229552500Y-64135000D03*
X235902500Y-61595000D03*
D11*
X200342500Y-66675000D03*
D10*
X195262500Y-66675000D03*
D11*
X190182500Y-66675000D03*
D12*
X191452500Y-64135000D03*
X197802500Y-61595000D03*
D11*
X33655000Y-47625000D03*
D10*
X28575000Y-47625000D03*
D11*
X23495000Y-47625000D03*
D12*
X24765000Y-45085000D03*
X31115000Y-42545000D03*
D11*
X262255000Y-85725000D03*
D10*
X257175000Y-85725000D03*
D11*
X252095000Y-85725000D03*
D12*
X253365000Y-83185000D03*
X259715000Y-80645000D03*
D11*
X271780000Y-47625000D03*
D10*
X266700000Y-47625000D03*
D11*
X261620000Y-47625000D03*
D12*
X262890000Y-45085000D03*
X269240000Y-42545000D03*
D11*
X367030000Y-76200000D03*
D10*
X361950000Y-76200000D03*
D11*
X356870000Y-76200000D03*
D12*
X358140000Y-73660000D03*
X364490000Y-71120000D03*
D11*
X271780000Y-104775000D03*
D10*
X266700000Y-104775000D03*
D11*
X261620000Y-104775000D03*
D12*
X262890000Y-102235000D03*
X269240000Y-99695000D03*
D11*
X181292500Y-66675000D03*
D10*
X176212500Y-66675000D03*
D11*
X171132500Y-66675000D03*
D12*
X172402500Y-64135000D03*
X178752500Y-61595000D03*
D11*
X90805000Y-23812500D03*
D10*
X85725000Y-23812500D03*
D11*
X80645000Y-23812500D03*
D12*
X81915000Y-21272500D03*
X88265000Y-18732500D03*
D11*
X328930000Y-123825000D03*
D10*
X323850000Y-123825000D03*
D11*
X318770000Y-123825000D03*
D12*
X320040000Y-121285000D03*
X326390000Y-118745000D03*
D11*
X59848750Y-47625000D03*
D10*
X54768750Y-47625000D03*
D11*
X49688750Y-47625000D03*
D12*
X50958750Y-45085000D03*
X57308750Y-42545000D03*
D11*
X109855000Y-85725000D03*
D10*
X104775000Y-85725000D03*
D11*
X99695000Y-85725000D03*
D12*
X100965000Y-83185000D03*
X107315000Y-80645000D03*
D11*
X347980000Y-104775000D03*
D10*
X342900000Y-104775000D03*
D11*
X337820000Y-104775000D03*
D12*
X339090000Y-102235000D03*
X345440000Y-99695000D03*
D11*
X90805000Y-85725000D03*
D10*
X85725000Y-85725000D03*
D11*
X80645000Y-85725000D03*
D12*
X81915000Y-83185000D03*
X88265000Y-80645000D03*
D11*
X105092500Y-66675000D03*
D10*
X100012500Y-66675000D03*
D11*
X94932500Y-66675000D03*
D12*
X96202500Y-64135000D03*
X102552500Y-61595000D03*
D11*
X281305000Y-85725000D03*
D10*
X276225000Y-85725000D03*
D11*
X271145000Y-85725000D03*
D12*
X272415000Y-83185000D03*
X278765000Y-80645000D03*
D11*
X147955000Y-23812500D03*
D10*
X142875000Y-23812500D03*
D11*
X137795000Y-23812500D03*
D12*
X139065000Y-21272500D03*
X145415000Y-18732500D03*
D11*
X69373750Y-104775000D03*
D10*
X64293750Y-104775000D03*
D11*
X59213750Y-104775000D03*
D12*
X60483750Y-102235000D03*
X66833750Y-99695000D03*
D11*
X119380000Y-104775000D03*
D10*
X114300000Y-104775000D03*
D11*
X109220000Y-104775000D03*
D12*
X110490000Y-102235000D03*
X116840000Y-99695000D03*
D11*
X347980000Y-57150000D03*
D10*
X342900000Y-57150000D03*
D11*
X337820000Y-57150000D03*
D12*
X339090000Y-54610000D03*
X345440000Y-52070000D03*
D11*
X107473750Y-123825000D03*
D10*
X102393750Y-123825000D03*
D11*
X97313750Y-123825000D03*
D12*
X98583750Y-121285000D03*
X104933750Y-118745000D03*
D11*
X100330000Y-104775000D03*
D10*
X95250000Y-104775000D03*
D11*
X90170000Y-104775000D03*
D12*
X91440000Y-102235000D03*
X97790000Y-99695000D03*
D11*
X367030000Y-38100000D03*
D10*
X361950000Y-38100000D03*
D11*
X356870000Y-38100000D03*
D12*
X358140000Y-35560000D03*
X364490000Y-33020000D03*
D11*
X347980000Y-38100000D03*
D10*
X342900000Y-38100000D03*
D11*
X337820000Y-38100000D03*
D12*
X339090000Y-35560000D03*
X345440000Y-33020000D03*
D16*
X146362500Y-130968750D03*
D17*
X143822500Y-130968750D03*
X141282501Y-130968750D03*
X138742500Y-130968750D03*
X136202500Y-130968750D03*
D11*
X147955000Y-85725000D03*
D10*
X142875000Y-85725000D03*
D11*
X137795000Y-85725000D03*
D12*
X139065000Y-83185000D03*
X145415000Y-80645000D03*
D11*
X86042500Y-66675000D03*
D10*
X80962500Y-66675000D03*
D11*
X75882500Y-66675000D03*
D12*
X77152500Y-64135000D03*
X83502500Y-61595000D03*
D11*
X307498750Y-104775000D03*
D10*
X302418750Y-104775000D03*
D11*
X297338750Y-104775000D03*
D12*
X298608750Y-102235000D03*
X304958750Y-99695000D03*
D11*
X33655000Y-104775000D03*
D10*
X28575000Y-104775000D03*
D11*
X23495000Y-104775000D03*
D12*
X24765000Y-102235000D03*
X31115000Y-99695000D03*
D11*
X138430000Y-47625000D03*
D10*
X133350000Y-47625000D03*
D11*
X128270000Y-47625000D03*
D12*
X129540000Y-45085000D03*
X135890000Y-42545000D03*
D11*
X243205000Y-85725000D03*
D10*
X238125000Y-85725000D03*
D11*
X233045000Y-85725000D03*
D12*
X234315000Y-83185000D03*
X240665000Y-80645000D03*
D11*
X233680000Y-23812500D03*
D10*
X228600000Y-23812500D03*
D11*
X223520000Y-23812500D03*
D12*
X224790000Y-21272500D03*
X231140000Y-18732500D03*
D11*
X157480000Y-104775000D03*
D10*
X152400000Y-104775000D03*
D11*
X147320000Y-104775000D03*
D12*
X148590000Y-102235000D03*
X154940000Y-99695000D03*
D11*
X62230000Y-66675000D03*
D10*
X57150000Y-66675000D03*
D11*
X52070000Y-66675000D03*
D12*
X53340000Y-64135000D03*
X59690000Y-61595000D03*
D11*
X33655000Y-66675000D03*
D10*
X28575000Y-66675000D03*
D11*
X23495000Y-66675000D03*
D12*
X24765000Y-64135000D03*
X31115000Y-61595000D03*
D11*
X128905000Y-23812500D03*
D10*
X123825000Y-23812500D03*
D11*
X118745000Y-23812500D03*
D12*
X120015000Y-21272500D03*
X126365000Y-18732500D03*
D11*
X64611250Y-85725000D03*
D10*
X59531250Y-85725000D03*
D11*
X54451250Y-85725000D03*
D12*
X55721250Y-83185000D03*
X62071250Y-80645000D03*
D11*
X250348750Y-123825000D03*
D10*
X245268750Y-123825000D03*
D11*
X240188750Y-123825000D03*
D12*
X241458750Y-121285000D03*
X247808750Y-118745000D03*
D11*
X233680000Y-47625000D03*
D10*
X228600000Y-47625000D03*
D11*
X223520000Y-47625000D03*
D12*
X224790000Y-45085000D03*
X231140000Y-42545000D03*
D11*
X33655000Y-85725000D03*
D10*
X28575000Y-85725000D03*
D11*
X23495000Y-85725000D03*
D12*
X24765000Y-83185000D03*
X31115000Y-80645000D03*
D11*
X195580000Y-47625000D03*
D10*
X190500000Y-47625000D03*
D11*
X185420000Y-47625000D03*
D12*
X186690000Y-45085000D03*
X193040000Y-42545000D03*
D11*
X162242500Y-66675000D03*
D10*
X157162500Y-66675000D03*
D11*
X152082500Y-66675000D03*
D12*
X153352500Y-64135000D03*
X159702500Y-61595000D03*
D11*
X176530000Y-23812500D03*
D10*
X171450000Y-23812500D03*
D11*
X166370000Y-23812500D03*
D12*
X167640000Y-21272500D03*
X173990000Y-18732500D03*
D11*
X57467500Y-23812500D03*
D10*
X52387500Y-23812500D03*
D11*
X47307500Y-23812500D03*
D12*
X48577500Y-21272500D03*
X54927500Y-18732500D03*
D11*
X124142500Y-66675000D03*
D10*
X119062500Y-66675000D03*
D11*
X113982500Y-66675000D03*
D12*
X115252500Y-64135000D03*
X121602500Y-61595000D03*
D11*
X119380000Y-47625000D03*
D10*
X114300000Y-47625000D03*
D11*
X109220000Y-47625000D03*
D12*
X110490000Y-45085000D03*
X116840000Y-42545000D03*
D11*
X252730000Y-47625000D03*
D10*
X247650000Y-47625000D03*
D11*
X242570000Y-47625000D03*
D12*
X243840000Y-45085000D03*
X250190000Y-42545000D03*
D11*
X138430000Y-104775000D03*
D10*
X133350000Y-104775000D03*
D11*
X128270000Y-104775000D03*
D12*
X129540000Y-102235000D03*
X135890000Y-99695000D03*
D11*
X319405000Y-23812500D03*
D10*
X314325000Y-23812500D03*
D11*
X309245000Y-23812500D03*
D12*
X310515000Y-21272500D03*
X316865000Y-18732500D03*
D11*
X81280000Y-47625000D03*
D10*
X76200000Y-47625000D03*
D11*
X71120000Y-47625000D03*
D12*
X72390000Y-45085000D03*
X78740000Y-42545000D03*
M02*
