M48
; DRILL file {KiCad 8.0.3} date 2024-09-05T06:14:58+1200
; FORMAT={-:-/ absolute / inch / decimal}
; #@! TF.CreationDate,2024-09-05T06:14:58+12:00
; #@! TF.GenerationSoftware,Kicad,Pcbnew,8.0.3
; #@! TF.FileFunction,Plated,1,2,PTH
FMAT,2
INCH
; #@! TA.AperFunction,Plated,PTH,ViaDrill
T1C0.0118
; #@! TA.AperFunction,Plated,PTH,ComponentDrill
T2C0.0236
; #@! TA.AperFunction,Plated,PTH,ComponentDrill
T3C0.0394
; #@! TA.AperFunction,Plated,PTH,ComponentDrill
T4C0.1181
; #@! TA.AperFunction,Plated,PTH,ComponentDrill
T5C0.1200
%
G90
G05
T1
X1.3125Y-1.9688
X1.3125Y-2.7188
X1.3125Y-3.4688
X1.3125Y-4.2188
X2.25Y-1.0312
X2.3438Y-1.9688
X2.3438Y-4.9688
X2.4375Y-2.7188
X2.5312Y-3.4688
X2.5938Y-0.9688
X2.607Y-1.373
X2.7188Y-4.2188
X2.875Y-0.9688
X3.0401Y-2.1683
X3.0401Y-2.2864
X3.1875Y-1.9688
X3.2812Y-4.9688
X3.375Y-2.7188
X3.5625Y-1.0312
X3.5625Y-2.1604
X3.5625Y-2.2943
X3.5625Y-3.4688
X3.9375Y-1.9688
X3.9375Y-4.2188
X4.125Y-2.7188
X4.2188Y-4.9688
X4.25Y-2.1875
X4.25Y-2.3056
X4.3125Y-1.0312
X4.3125Y-3.4688
X4.6875Y-1.9688
X4.6875Y-4.2188
X4.875Y-2.7188
X5.0625Y-1.0312
X5.0625Y-3.4688
X5.0938Y-4.2812
X5.125Y-3.625
X5.25Y-4.2812
X5.2812Y-3.625
X5.2812Y-5.1562
X5.3125Y-4.5625
X5.3438Y-3.625
X5.3438Y-4.875
X5.375Y-5.0938
X5.4023Y-3.7825
X5.4375Y-1.9688
X5.4375Y-4.2188
X5.4417Y-3.5069
X5.5Y-4.1562
X5.5Y-4.5625
X5.5312Y-4.1875
X5.5598Y-5.0344
X5.5625Y-4.375
X5.5938Y-4.6875
X5.625Y-2.7188
X5.6562Y-4.4688
X5.7488Y-4.4518
X5.7616Y-4.3354
X5.8125Y-1.0312
X5.8125Y-3.4688
X5.8125Y-5.0
X5.8275Y-4.4375
X5.859Y-4.5778
X5.859Y-4.6722
X5.8713Y-4.1872
X5.8748Y-4.8731
X5.906Y-3.5
X5.9062Y-4.625
X5.9375Y-3.5
X5.9375Y-5.1562
X5.9377Y-4.9375
X5.9456Y-4.2864
X5.9535Y-4.5778
X5.9535Y-4.6722
X5.9687Y-4.8535
X6.0Y-4.3033
X6.0Y-5.1562
X6.0007Y-4.7195
X6.015Y-4.2424
X6.0322Y-4.2785
X6.0625Y-4.2188
X6.0625Y-4.9062
X6.074Y-4.4636
X6.125Y-4.875
X6.1875Y-1.9688
X6.1875Y-4.5
X6.2188Y-4.6562
X6.25Y-4.4688
X6.25Y-4.8125
X6.3125Y-4.75
X6.3438Y-4.875
X6.375Y-2.7188
X6.375Y-4.8125
X6.4062Y-4.7188
X6.4375Y-4.8125
X6.4574Y-4.373
X6.5625Y-3.4688
X6.5938Y-4.625
X6.607Y-4.373
X6.8022Y-3.7116
X6.8196Y-4.5861
X6.9062Y-4.9688
X6.9141Y-4.4045
X6.922Y-4.4518
X6.9299Y-4.373
X6.9375Y-1.0312
X6.9375Y-1.9688
X6.9375Y-4.2188
X6.9377Y-4.5069
X7.0007Y-4.2943
X7.0322Y-4.3573
X7.0559Y-4.4124
X7.1031Y-4.4675
X7.111Y-4.5856
X7.125Y-2.7188
X7.3125Y-3.4688
X7.6875Y-1.0312
X7.6875Y-1.9688
X7.6875Y-4.2188
X7.875Y-2.7188
X8.0625Y-3.4688
X8.4375Y-1.0312
X8.4375Y-1.9688
X8.4375Y-4.2188
X8.625Y-2.7188
X8.8125Y-3.4688
X9.1875Y-1.9688
X9.1875Y-4.2188
X9.2188Y-1.0312
X9.2763Y-4.7746
X9.375Y-2.7188
X9.5625Y-3.4688
X9.5625Y-4.4062
X9.7188Y-4.9688
X9.7812Y-3.5938
X9.9375Y-1.9688
X9.9375Y-4.2188
X10.125Y-2.7188
X10.3125Y-1.0312
X10.3125Y-3.4688
X10.3125Y-4.4062
X10.6562Y-4.9688
X10.6875Y-1.9688
X10.6875Y-4.2188
X10.875Y-2.7188
X11.0625Y-1.0312
X11.0625Y-3.4688
X11.4375Y-1.9688
X11.625Y-2.7188
X11.6875Y-4.9688
X11.8125Y-1.0312
X11.9437Y-3.5312
X12.0938Y-4.2188
X12.2812Y-3.4688
X12.4375Y-1.0312
X12.4688Y-1.9688
X12.5625Y-2.7188
X12.8125Y-4.9688
X13.5625Y-1.625
X13.5625Y-4.2188
X13.5625Y-4.9688
X13.6875Y-2.3438
X13.6875Y-3.0938
X14.3125Y-1.625
X14.3125Y-2.3438
X14.3125Y-3.0938
X14.3125Y-4.9688
T3
X5.3623Y-5.1562
X5.4623Y-5.1562
X5.5623Y-5.1562
X5.6623Y-5.1562
X5.7623Y-5.1562
T4
X0.975Y-1.775
X0.975Y-2.525
X0.975Y-3.275
X0.975Y-4.025
X1.225Y-1.675
X1.225Y-2.425
X1.225Y-3.175
X1.225Y-3.925
X1.9125Y-0.8375
X2.0063Y-1.775
X2.0063Y-4.775
X2.1Y-2.525
X2.1625Y-0.7375
X2.1938Y-3.275
X2.2563Y-1.675
X2.2563Y-4.675
X2.35Y-2.425
X2.3813Y-4.025
X2.4438Y-3.175
X2.6313Y-3.925
X2.85Y-1.775
X2.9438Y-4.775
X3.0375Y-2.525
X3.1Y-1.675
X3.1938Y-4.675
X3.225Y-0.8375
X3.225Y-3.275
X3.2875Y-2.425
X3.475Y-0.7375
X3.475Y-3.175
X3.6Y-1.775
X3.6Y-4.025
X3.7875Y-2.525
X3.85Y-1.675
X3.85Y-3.925
X3.8813Y-4.775
X3.975Y-0.8375
X3.975Y-3.275
X4.0375Y-2.425
X4.1312Y-4.675
X4.225Y-0.7375
X4.225Y-3.175
X4.35Y-1.775
X4.35Y-4.025
X4.5375Y-2.525
X4.6Y-1.675
X4.6Y-3.925
X4.725Y-0.8375
X4.725Y-3.275
X4.7875Y-2.425
X4.975Y-0.7375
X4.975Y-3.175
X5.1Y-1.775
X5.1Y-4.025
X5.2875Y-2.525
X5.35Y-1.675
X5.35Y-3.925
X5.475Y-0.8375
X5.475Y-3.275
X5.5375Y-2.425
X5.725Y-0.7375
X5.725Y-3.175
X5.85Y-1.775
X5.85Y-4.025
X6.0375Y-2.525
X6.1Y-1.675
X6.1Y-3.925
X6.225Y-3.275
X6.2875Y-2.425
X6.475Y-3.175
X6.6Y-0.8375
X6.6Y-1.775
X6.6Y-4.025
X6.6937Y-4.775
X6.7875Y-2.525
X6.85Y-0.7375
X6.85Y-1.675
X6.85Y-3.925
X6.9437Y-4.675
X6.975Y-3.275
X7.0375Y-2.425
X7.225Y-3.175
X7.35Y-0.8375
X7.35Y-1.775
X7.35Y-4.025
X7.5375Y-2.525
X7.6Y-0.7375
X7.6Y-1.675
X7.6Y-3.925
X7.725Y-3.275
X7.7875Y-2.425
X7.975Y-3.175
X8.1Y-0.8375
X8.1Y-1.775
X8.1Y-4.025
X8.2875Y-2.525
X8.35Y-0.7375
X8.35Y-1.675
X8.35Y-3.925
X8.475Y-3.275
X8.5375Y-2.425
X8.725Y-3.175
X8.85Y-0.8375
X8.85Y-1.775
X8.85Y-4.025
X9.0375Y-2.525
X9.1Y-0.7375
X9.1Y-1.675
X9.1Y-3.925
X9.225Y-3.275
X9.2875Y-2.425
X9.475Y-3.175
X9.5062Y-4.775
X9.6Y-1.775
X9.6Y-4.025
X9.7562Y-4.675
X9.7875Y-2.525
X9.85Y-1.675
X9.85Y-3.925
X9.975Y-0.8375
X9.975Y-3.275
X10.0375Y-2.425
X10.225Y-0.7375
X10.225Y-3.175
X10.35Y-1.775
X10.35Y-4.025
X10.4437Y-4.775
X10.5375Y-2.525
X10.6Y-1.675
X10.6Y-3.925
X10.6937Y-4.675
X10.725Y-0.8375
X10.725Y-3.275
X10.7875Y-2.425
X10.975Y-0.7375
X10.975Y-3.175
X11.1Y-1.775
X11.2875Y-2.525
X11.35Y-1.675
X11.475Y-0.8375
X11.475Y-4.775
X11.5375Y-2.425
X11.725Y-0.7375
X11.725Y-4.675
X11.7562Y-4.025
X11.9437Y-3.275
X12.0062Y-3.925
X12.1312Y-1.775
X12.1937Y-3.175
X12.225Y-0.8375
X12.225Y-2.525
X12.3812Y-1.675
X12.475Y-0.7375
X12.475Y-2.425
X12.6Y-4.775
X12.85Y-4.675
X13.35Y-1.4
X13.35Y-2.15
X13.35Y-2.9
X13.35Y-4.025
X13.35Y-4.775
X13.6Y-1.3
X13.6Y-2.05
X13.6Y-2.8
X13.6Y-3.925
X13.6Y-4.675
X14.1Y-1.4
X14.1Y-2.15
X14.1Y-2.9
X14.1Y-4.775
X14.35Y-1.3
X14.35Y-2.05
X14.35Y-2.8
X14.35Y-4.675
T5
X2.0625Y-4.4
X3.0Y-4.4
X4.8671Y-4.5862
X8.8046Y-4.5862
X11.4375Y-4.4
X11.625Y-3.65
X12.375Y-4.4
X12.5625Y-3.65
T2
G00X2.5487Y-0.6031
M15
G01X2.5487Y-0.6267
M16
G05
G00X2.5487Y-0.7578
M15
G01X2.5487Y-0.8011
M16
G05
G00X2.8888Y-0.6031
M15
G01X2.8888Y-0.6267
M16
G05
G00X2.8888Y-0.7578
M15
G01X2.8888Y-0.8011
M16
G05
M30
