M48
; DRILL file {KiCad 8.0.3} date 2024-09-05T06:14:58+1200
; FORMAT={-:-/ absolute / inch / decimal}
; #@! TF.CreationDate,2024-09-05T06:14:58+12:00
; #@! TF.GenerationSoftware,Kicad,Pcbnew,8.0.3
; #@! TF.FileFunction,NonPlated,1,2,NPTH
FMAT,2
INCH
; #@! TA.AperFunction,NonPlated,NPTH,ComponentDrill
T1C0.0256
; #@! TA.AperFunction,NonPlated,NPTH,ComponentDrill
T2C0.0689
; #@! TA.AperFunction,NonPlated,NPTH,ComponentDrill
T3C0.1570
%
G90
G05
T1
X2.605Y-0.7586
X2.8325Y-0.7586
T2
X0.925Y-1.875
X0.925Y-2.625
X0.925Y-3.375
X0.925Y-4.125
X1.325Y-1.875
X1.325Y-2.625
X1.325Y-3.375
X1.325Y-4.125
X1.8625Y-0.9375
X1.9563Y-1.875
X1.9563Y-4.875
X2.05Y-2.625
X2.1437Y-3.375
X2.2625Y-0.9375
X2.3312Y-4.125
X2.3562Y-1.875
X2.3562Y-4.875
X2.45Y-2.625
X2.5437Y-3.375
X2.7312Y-4.125
X2.8Y-1.875
X2.8937Y-4.875
X2.9875Y-2.625
X3.175Y-0.9375
X3.175Y-3.375
X3.2Y-1.875
X3.2937Y-4.875
X3.3875Y-2.625
X3.55Y-1.875
X3.55Y-4.125
X3.575Y-0.9375
X3.575Y-3.375
X3.7375Y-2.625
X3.8312Y-4.875
X3.925Y-0.9375
X3.925Y-3.375
X3.95Y-1.875
X3.95Y-4.125
X4.1375Y-2.625
X4.2313Y-4.875
X4.3Y-1.875
X4.3Y-4.125
X4.325Y-0.9375
X4.325Y-3.375
X4.4875Y-2.625
X4.675Y-0.9375
X4.675Y-3.375
X4.7Y-1.875
X4.7Y-4.125
X4.8875Y-2.625
X5.05Y-1.875
X5.05Y-4.125
X5.075Y-0.9375
X5.075Y-3.375
X5.2375Y-2.625
X5.425Y-0.9375
X5.425Y-3.375
X5.45Y-1.875
X5.45Y-4.125
X5.6375Y-2.625
X5.8Y-1.875
X5.8Y-4.125
X5.825Y-0.9375
X5.825Y-3.375
X5.9875Y-2.625
X6.175Y-3.375
X6.2Y-1.875
X6.2Y-4.125
X6.3875Y-2.625
X6.55Y-0.9375
X6.55Y-1.875
X6.55Y-4.125
X6.575Y-3.375
X6.6437Y-4.875
X6.7375Y-2.625
X6.925Y-3.375
X6.95Y-0.9375
X6.95Y-1.875
X6.95Y-4.125
X7.0438Y-4.875
X7.1375Y-2.625
X7.3Y-0.9375
X7.3Y-1.875
X7.3Y-4.125
X7.325Y-3.375
X7.4875Y-2.625
X7.675Y-3.375
X7.7Y-0.9375
X7.7Y-1.875
X7.7Y-4.125
X7.8875Y-2.625
X8.05Y-0.9375
X8.05Y-1.875
X8.05Y-4.125
X8.075Y-3.375
X8.2375Y-2.625
X8.425Y-3.375
X8.45Y-0.9375
X8.45Y-1.875
X8.45Y-4.125
X8.6375Y-2.625
X8.8Y-0.9375
X8.8Y-1.875
X8.8Y-4.125
X8.825Y-3.375
X8.9875Y-2.625
X9.175Y-3.375
X9.2Y-0.9375
X9.2Y-1.875
X9.2Y-4.125
X9.3875Y-2.625
X9.4562Y-4.875
X9.55Y-1.875
X9.55Y-4.125
X9.575Y-3.375
X9.7375Y-2.625
X9.8562Y-4.875
X9.925Y-0.9375
X9.925Y-3.375
X9.95Y-1.875
X9.95Y-4.125
X10.1375Y-2.625
X10.3Y-1.875
X10.3Y-4.125
X10.325Y-0.9375
X10.325Y-3.375
X10.3937Y-4.875
X10.4875Y-2.625
X10.675Y-0.9375
X10.675Y-3.375
X10.7Y-1.875
X10.7Y-4.125
X10.7937Y-4.875
X10.8875Y-2.625
X11.05Y-1.875
X11.075Y-0.9375
X11.075Y-3.375
X11.2375Y-2.625
X11.425Y-0.9375
X11.425Y-4.875
X11.45Y-1.875
X11.6375Y-2.625
X11.7062Y-4.125
X11.825Y-0.9375
X11.825Y-4.875
X11.8937Y-3.375
X12.0812Y-1.875
X12.1062Y-4.125
X12.175Y-0.9375
X12.175Y-2.625
X12.2937Y-3.375
X12.4812Y-1.875
X12.55Y-4.875
X12.575Y-0.9375
X12.575Y-2.625
X12.95Y-4.875
X13.3Y-1.5
X13.3Y-2.25
X13.3Y-3.0
X13.3Y-4.125
X13.3Y-4.875
X13.7Y-1.5
X13.7Y-2.25
X13.7Y-3.0
X13.7Y-4.125
X13.7Y-4.875
X14.05Y-1.5
X14.05Y-2.25
X14.05Y-3.0
X14.05Y-4.875
X14.45Y-1.5
X14.45Y-2.25
X14.45Y-3.0
X14.45Y-4.875
T3
X1.125Y-1.875
X1.125Y-2.625
X1.125Y-3.375
X1.125Y-4.125
X2.0625Y-0.9375
X2.0625Y-3.8
X2.1562Y-1.875
X2.1562Y-4.875
X2.25Y-2.625
X2.3438Y-3.375
X2.5312Y-4.125
X3.0Y-1.875
X3.0Y-3.8
X3.0938Y-4.875
X3.1875Y-2.625
X3.375Y-0.9375
X3.375Y-3.375
X3.75Y-1.875
X3.75Y-4.125
X3.9375Y-2.625
X4.0312Y-4.875
X4.125Y-0.9375
X4.125Y-3.375
X4.5Y-1.875
X4.5Y-4.125
X4.6875Y-2.625
X4.8671Y-5.1862
X4.875Y-0.9375
X4.875Y-3.375
X5.25Y-1.875
X5.25Y-4.125
X5.4375Y-2.625
X5.625Y-0.9375
X5.625Y-3.375
X6.0Y-1.875
X6.0Y-4.125
X6.1875Y-2.625
X6.375Y-3.375
X6.75Y-0.9375
X6.75Y-1.875
X6.75Y-4.125
X6.8438Y-4.875
X6.9375Y-2.625
X7.125Y-3.375
X7.5Y-0.9375
X7.5Y-1.875
X7.5Y-4.125
X7.6875Y-2.625
X7.875Y-3.375
X8.25Y-0.9375
X8.25Y-1.875
X8.25Y-4.125
X8.4375Y-2.625
X8.625Y-3.375
X8.8046Y-5.1862
X9.0Y-0.9375
X9.0Y-1.875
X9.0Y-4.125
X9.1875Y-2.625
X9.375Y-3.375
X9.6562Y-4.875
X9.75Y-1.875
X9.75Y-4.125
X9.9375Y-2.625
X10.125Y-0.9375
X10.125Y-3.375
X10.5Y-1.875
X10.5Y-4.125
X10.5938Y-4.875
X10.6875Y-2.625
X10.875Y-0.9375
X10.875Y-3.375
X11.25Y-1.875
X11.4375Y-2.625
X11.4375Y-3.8
X11.625Y-0.9375
X11.625Y-3.05
X11.625Y-4.875
X11.9062Y-4.125
X12.0938Y-3.375
X12.2812Y-1.875
X12.375Y-0.9375
X12.375Y-2.625
X12.375Y-3.8
X12.5625Y-3.05
X12.75Y-4.875
X13.5Y-1.5
X13.5Y-2.25
X13.5Y-3.0
X13.5Y-4.125
X13.5Y-4.875
X14.25Y-1.5
X14.25Y-2.25
X14.25Y-3.0
X14.25Y-4.875
M30
