%TF.GenerationSoftware,KiCad,Pcbnew,8.0.3*%
%TF.CreationDate,2024-09-05T06:55:27+12:00*%
%TF.ProjectId,test2,74657374-322e-46b6-9963-61645f706362,rev?*%
%TF.SameCoordinates,Original*%
%TF.FileFunction,Legend,Top*%
%TF.FilePolarity,Positive*%
%FSLAX46Y46*%
G04 Gerber Fmt 4.6, Leading zero omitted, Abs format (unit mm)*
G04 Created by KiCad (PCBNEW 8.0.3) date 2024-09-05 06:55:27*
%MOMM*%
%LPD*%
G01*
G04 APERTURE LIST*
%ADD10C,0.100000*%
G04 APERTURE END LIST*
D10*
X195058348Y-123491169D02*
X195058348Y-124205454D01*
X195058348Y-124205454D02*
X195010729Y-124348311D01*
X195010729Y-124348311D02*
X194915491Y-124443550D01*
X194915491Y-124443550D02*
X194772634Y-124491169D01*
X194772634Y-124491169D02*
X194677396Y-124491169D01*
X196010729Y-124491169D02*
X195534539Y-124491169D01*
X195534539Y-124491169D02*
X195534539Y-123491169D01*
X196915491Y-124395930D02*
X196867872Y-124443550D01*
X196867872Y-124443550D02*
X196725015Y-124491169D01*
X196725015Y-124491169D02*
X196629777Y-124491169D01*
X196629777Y-124491169D02*
X196486920Y-124443550D01*
X196486920Y-124443550D02*
X196391682Y-124348311D01*
X196391682Y-124348311D02*
X196344063Y-124253073D01*
X196344063Y-124253073D02*
X196296444Y-124062597D01*
X196296444Y-124062597D02*
X196296444Y-123919740D01*
X196296444Y-123919740D02*
X196344063Y-123729264D01*
X196344063Y-123729264D02*
X196391682Y-123634026D01*
X196391682Y-123634026D02*
X196486920Y-123538788D01*
X196486920Y-123538788D02*
X196629777Y-123491169D01*
X196629777Y-123491169D02*
X196725015Y-123491169D01*
X196725015Y-123491169D02*
X196867872Y-123538788D01*
X196867872Y-123538788D02*
X196915491Y-123586407D01*
X197629777Y-123491169D02*
X197629777Y-124205454D01*
X197629777Y-124205454D02*
X197582158Y-124348311D01*
X197582158Y-124348311D02*
X197486920Y-124443550D01*
X197486920Y-124443550D02*
X197344063Y-124491169D01*
X197344063Y-124491169D02*
X197248825Y-124491169D01*
X198582158Y-124491169D02*
X198105968Y-124491169D01*
X198105968Y-124491169D02*
X198105968Y-123491169D01*
X199486920Y-124395930D02*
X199439301Y-124443550D01*
X199439301Y-124443550D02*
X199296444Y-124491169D01*
X199296444Y-124491169D02*
X199201206Y-124491169D01*
X199201206Y-124491169D02*
X199058349Y-124443550D01*
X199058349Y-124443550D02*
X198963111Y-124348311D01*
X198963111Y-124348311D02*
X198915492Y-124253073D01*
X198915492Y-124253073D02*
X198867873Y-124062597D01*
X198867873Y-124062597D02*
X198867873Y-123919740D01*
X198867873Y-123919740D02*
X198915492Y-123729264D01*
X198915492Y-123729264D02*
X198963111Y-123634026D01*
X198963111Y-123634026D02*
X199058349Y-123538788D01*
X199058349Y-123538788D02*
X199201206Y-123491169D01*
X199201206Y-123491169D02*
X199296444Y-123491169D01*
X199296444Y-123491169D02*
X199439301Y-123538788D01*
X199439301Y-123538788D02*
X199486920Y-123586407D01*
X200201206Y-123491169D02*
X200201206Y-124205454D01*
X200201206Y-124205454D02*
X200153587Y-124348311D01*
X200153587Y-124348311D02*
X200058349Y-124443550D01*
X200058349Y-124443550D02*
X199915492Y-124491169D01*
X199915492Y-124491169D02*
X199820254Y-124491169D01*
X201153587Y-124491169D02*
X200677397Y-124491169D01*
X200677397Y-124491169D02*
X200677397Y-123491169D01*
X202058349Y-124395930D02*
X202010730Y-124443550D01*
X202010730Y-124443550D02*
X201867873Y-124491169D01*
X201867873Y-124491169D02*
X201772635Y-124491169D01*
X201772635Y-124491169D02*
X201629778Y-124443550D01*
X201629778Y-124443550D02*
X201534540Y-124348311D01*
X201534540Y-124348311D02*
X201486921Y-124253073D01*
X201486921Y-124253073D02*
X201439302Y-124062597D01*
X201439302Y-124062597D02*
X201439302Y-123919740D01*
X201439302Y-123919740D02*
X201486921Y-123729264D01*
X201486921Y-123729264D02*
X201534540Y-123634026D01*
X201534540Y-123634026D02*
X201629778Y-123538788D01*
X201629778Y-123538788D02*
X201772635Y-123491169D01*
X201772635Y-123491169D02*
X201867873Y-123491169D01*
X201867873Y-123491169D02*
X202010730Y-123538788D01*
X202010730Y-123538788D02*
X202058349Y-123586407D01*
X202772635Y-123491169D02*
X202772635Y-124205454D01*
X202772635Y-124205454D02*
X202725016Y-124348311D01*
X202725016Y-124348311D02*
X202629778Y-124443550D01*
X202629778Y-124443550D02*
X202486921Y-124491169D01*
X202486921Y-124491169D02*
X202391683Y-124491169D01*
X203725016Y-124491169D02*
X203248826Y-124491169D01*
X203248826Y-124491169D02*
X203248826Y-123491169D01*
X204629778Y-124395930D02*
X204582159Y-124443550D01*
X204582159Y-124443550D02*
X204439302Y-124491169D01*
X204439302Y-124491169D02*
X204344064Y-124491169D01*
X204344064Y-124491169D02*
X204201207Y-124443550D01*
X204201207Y-124443550D02*
X204105969Y-124348311D01*
X204105969Y-124348311D02*
X204058350Y-124253073D01*
X204058350Y-124253073D02*
X204010731Y-124062597D01*
X204010731Y-124062597D02*
X204010731Y-123919740D01*
X204010731Y-123919740D02*
X204058350Y-123729264D01*
X204058350Y-123729264D02*
X204105969Y-123634026D01*
X204105969Y-123634026D02*
X204201207Y-123538788D01*
X204201207Y-123538788D02*
X204344064Y-123491169D01*
X204344064Y-123491169D02*
X204439302Y-123491169D01*
X204439302Y-123491169D02*
X204582159Y-123538788D01*
X204582159Y-123538788D02*
X204629778Y-123586407D01*
M02*
